<svg width="434" height="83" viewBox="0 0 434 83" fill="none" xmlns="http://www.w3.org/2000/svg">
<path fill-rule="evenodd" clip-rule="evenodd" d="M39.4151 0L78.8117 19.7169V59.1135L39.4151 78.8118L0 59.1135V19.7169L39.4151 0ZM42.5654 32.0769L66.3034 20.3839L42.5654 8.52415V32.0769ZM71.8812 32.4846L63.5052 45.4562L71.8812 50.6263V32.5216V32.4846ZM70.0281 56.5748L60.3735 50.6818L50.2927 66.4516L70.0281 56.5748ZM42.5469 68.7124L55.7408 48.0319L42.5469 39.9896V68.7124ZM36.2278 38.5072L6.93055 24.0901V55.5926L36.2463 70.2504V62.7454L13.231 51.0896V46.9942L36.2463 58.6317V51.4972L13.231 39.8413V35.746L36.2463 47.3834V38.433L36.2278 38.5072ZM70.6582 24.646L47.7169 35.9499L58.8355 42.8619L70.6582 24.646Z" fill="white"/>
<path fill-rule="evenodd" clip-rule="evenodd" d="M94.6182 59.447V19.6057H137.462V29.2418H106.849V34.801H136.072V44.4741H106.849V49.9222H137.462V59.5397L94.6182 59.447ZM149.507 19.6057L167.704 39.1186L149.507 59.5026H165.98L177.933 46.1603L189.904 59.5026H206.378L188.18 39.1186L206.378 19.6057H189.403L177.933 32.4661L166.481 19.6057H149.507ZM216.903 19.7724V59.5582H229.152L228.93 28.0558C228.93 27.7037 241.16 51.4788 245.293 59.5582H255.318L270.569 28.0558L270.328 59.5582H282.577V19.7724H261.785L250.37 45.8083L238.974 19.7724H216.903ZM315.209 19.7724H336.242L355.94 59.5026H341.634L337.928 52.8315H313.671L309.965 59.5026H295.511L315.209 19.7724ZM326.68 28.7414H324.827L318.211 42.5284H333.296L326.643 28.6858L326.68 28.7414ZM367.151 59.6138V19.7724H379.382V59.5582L367.151 59.6138ZM393.354 19.7169H405.603V49.1624H433.399V59.447H393.354V19.7169Z" fill="white"/>
<path fill-rule="evenodd" clip-rule="evenodd" d="M95.2656 72.9748H104.531V74.272H96.711V77.1072H104.272V78.4043H96.711V81.3692H104.531V82.6664H95.2656V72.9748ZM120.653 76.9404H120.82L124.878 72.9748H126.935L122.006 77.6816L127.028 82.6664H125.063L120.82 78.4414H120.653L116.409 82.6664H114.556L119.578 77.6816L114.649 72.9748H116.65L120.727 76.9404H120.653ZM137.905 79.1271V82.6664H136.46V72.9748H144.354C144.725 72.9572 145.095 73.0155 145.442 73.1462C145.79 73.2768 146.107 73.477 146.374 73.7345C146.903 74.3925 147.161 75.2275 147.096 76.0694C147.155 76.9055 146.882 77.731 146.337 78.3672C146.063 78.6267 145.74 78.8279 145.386 78.9585C145.033 79.0892 144.656 79.1465 144.28 79.1271H137.905ZM137.905 74.272V77.8299H144.28C144.47 77.8386 144.659 77.8029 144.833 77.7257C145.006 77.6485 145.16 77.532 145.28 77.3852C145.56 76.9852 145.691 76.5002 145.651 76.0139C145.684 75.5456 145.553 75.0803 145.28 74.6982C145.159 74.5583 145.008 74.4475 144.838 74.3738C144.668 74.3 144.483 74.2653 144.298 74.272H137.905ZM158.456 79.164V82.6664H157.029V72.9748H165.701C166.056 72.9587 166.409 73.0277 166.731 73.176C167.054 73.3243 167.336 73.5476 167.554 73.8273C168.029 74.4754 168.264 75.2675 168.222 76.0694C168.269 76.7094 168.141 77.3501 167.851 77.9225C167.643 78.2398 167.337 78.4805 166.98 78.6081C167.292 78.7265 167.571 78.917 167.795 79.164C167.942 79.3236 168.055 79.5107 168.128 79.7143C168.201 79.9179 168.233 80.134 168.222 80.35V82.7221H166.795V80.35C166.79 80.1866 166.745 80.0269 166.665 79.8847C166.584 79.7426 166.469 79.6224 166.331 79.5347C166 79.3226 165.613 79.2131 165.22 79.2197L158.456 79.164ZM158.456 74.272V77.8299H165.108C165.518 77.8693 165.928 77.7715 166.276 77.5519C166.63 77.1284 166.824 76.5938 166.824 76.0416C166.824 75.4894 166.63 74.9548 166.276 74.5313C165.925 74.3012 165.507 74.1967 165.09 74.2349L158.456 74.272ZM178.543 72.9748H187.809V74.272H179.989V77.1072H187.549V78.4043H179.989V81.3692H187.809V82.6664H178.543V72.9748ZM207.211 75.9768C207.211 75.1429 206.988 74.6241 206.562 74.4017C205.591 74.1045 204.573 73.9913 203.56 74.0681C202.466 74.0074 201.369 74.0947 200.299 74.3275C200.075 74.4165 199.887 74.5783 199.766 74.7866C199.645 74.995 199.598 75.2379 199.631 75.4764C199.607 75.7521 199.668 76.0286 199.808 76.2677C199.947 76.5067 200.158 76.6965 200.41 76.8107C201.429 77.1244 202.496 77.25 203.56 77.1813C205.083 77.1026 206.606 77.3229 208.044 77.8299C208.674 78.1634 208.971 78.9046 208.971 80.0906C209.032 80.5696 208.937 81.0556 208.7 81.4763C208.463 81.897 208.097 82.2299 207.655 82.4255C206.237 82.8089 204.767 82.959 203.301 82.8702C201.738 83.0368 200.16 82.7674 198.742 82.092C198.223 81.7028 197.964 80.8504 197.964 79.5161H199.409C199.409 80.4241 199.613 80.9987 200.002 81.2396C201.079 81.5476 202.202 81.6606 203.319 81.5731C204.468 81.6366 205.621 81.5493 206.747 81.3137C207 81.2334 207.216 81.0669 207.358 80.8434C207.501 80.6199 207.56 80.3533 207.526 80.0906C207.526 79.4235 207.34 79.0159 206.951 78.8676C205.861 78.638 204.746 78.557 203.634 78.6267C202.093 78.7689 200.542 78.4869 199.15 77.8113C198.832 77.5495 198.586 77.2119 198.434 76.8297C198.282 76.4475 198.228 76.033 198.279 75.6247C198.279 74.4758 198.612 73.7716 199.316 73.4195C200.712 72.9873 202.176 72.8177 203.634 72.9192C205.092 72.7718 206.562 73.035 207.878 73.679C208.19 73.9982 208.426 74.3843 208.567 74.8081C208.708 75.2319 208.751 75.6822 208.693 76.1251L207.211 75.9768ZM227.724 75.9768C227.724 75.1429 227.52 74.6241 227.094 74.4017C226.117 74.1031 225.092 73.9899 224.074 74.0681C222.98 74.0085 221.883 74.0958 220.812 74.3275C220.594 74.4223 220.412 74.5858 220.295 74.7932C220.178 75.0005 220.132 75.2404 220.164 75.4764C220.139 75.7521 220.201 76.0286 220.34 76.2677C220.479 76.5067 220.69 76.6965 220.942 76.8107C221.954 77.125 223.016 77.2507 224.074 77.1813C225.553 77.1225 227.03 77.3425 228.428 77.8299C229.04 78.1634 229.355 78.9046 229.355 80.0906C229.41 80.5689 229.313 81.0525 229.076 81.4719C228.84 81.8914 228.477 82.2251 228.039 82.4255C226.621 82.8072 225.151 82.9574 223.684 82.8702C222.116 83.0335 220.533 82.7644 219.107 82.092C218.588 81.7028 218.329 80.8504 218.329 79.5161H219.774C219.774 80.4303 219.978 81.0049 220.386 81.2396C221.456 81.5482 222.574 81.6612 223.684 81.5731C224.84 81.6361 225.998 81.5488 227.131 81.3137C227.384 81.2334 227.6 81.0669 227.742 80.8434C227.884 80.6199 227.944 80.3533 227.909 80.0906C227.909 79.4235 227.706 79.0159 227.316 78.8676C226.227 78.638 225.111 78.557 223.999 78.6267C222.458 78.7661 220.908 78.4842 219.515 77.8113C219.202 77.5463 218.958 77.2082 218.806 76.8269C218.654 76.4455 218.599 76.0327 218.644 75.6247C218.644 74.4758 218.996 73.7716 219.682 73.4195C221.078 72.9886 222.542 72.819 223.999 72.9192C225.463 72.7732 226.939 73.0363 228.262 73.679C228.571 73.9999 228.803 74.3868 228.941 74.8105C229.079 75.2342 229.119 75.6836 229.058 76.1251L227.724 75.9768ZM278.295 72.9007V81.2951H285.707V82.5923H276.849V72.9007H278.295ZM296.418 77.7372C296.288 78.7594 296.482 79.7966 296.974 80.7021C298.019 81.333 299.248 81.588 300.458 81.4249C301.63 81.578 302.821 81.3643 303.867 80.8133C304.257 80.4427 304.442 79.4236 304.442 77.7372C304.442 76.0509 304.257 74.9761 303.867 74.6055C302.802 74.1153 301.622 73.9292 300.458 74.0681C299.273 73.9263 298.071 74.0989 296.974 74.5684C296.603 74.9267 296.418 75.983 296.418 77.7372ZM294.973 77.7372C294.783 76.2971 295.083 74.835 295.825 73.5864C297.244 72.8293 298.863 72.5315 300.458 72.7339C302.021 72.533 303.608 72.8245 304.998 73.5678C305.77 74.8051 306.085 76.2736 305.887 77.7187C305.887 79.9424 305.591 81.4249 304.979 81.8696C303.59 82.5946 302.013 82.8791 300.458 82.685C298.891 82.875 297.303 82.591 295.899 81.8696C295.288 81.3322 294.973 80.0165 294.973 77.7372ZM320.601 77.6075H326.642V78.9233C326.642 80.6096 326.345 81.6657 325.752 82.0734C324.308 82.6289 322.753 82.8383 321.212 82.685C319.656 82.871 318.079 82.5802 316.691 81.851C315.882 80.6421 315.546 79.178 315.746 77.7372C315.548 76.2873 315.877 74.8146 316.672 73.5864C318.06 72.8379 319.647 72.5399 321.212 72.7339C322.733 72.6012 324.263 72.8037 325.697 73.3269C326.327 73.7346 326.642 74.6982 326.642 76.2363H325.196C325.196 75.1985 324.993 74.5685 324.566 74.3832C323.477 74.0765 322.341 73.9637 321.212 74.0496C320.033 73.9067 318.838 74.0793 317.747 74.5499C317.376 74.902 317.191 75.9583 317.191 77.7372C317.191 79.5162 317.376 80.5724 317.747 80.906C318.838 81.3765 320.033 81.5492 321.212 81.4063C322.361 81.5097 323.519 81.3902 324.622 81.0542C325.011 80.8133 325.196 80.1091 325.196 78.9417H320.527V77.6261L320.601 77.6075ZM338.761 72.8636V82.5552H337.334V72.8636H338.761ZM357.941 75.9768C357.941 75.1429 357.718 74.6241 357.292 74.4017C356.321 74.1045 355.303 73.9913 354.29 74.0681C353.196 74.0074 352.099 74.0947 351.029 74.3275C350.805 74.4165 350.617 74.5783 350.496 74.7866C350.375 74.995 350.328 75.2379 350.361 75.4764C350.337 75.7521 350.398 76.0286 350.538 76.2677C350.677 76.5067 350.888 76.6965 351.14 76.8107C352.159 77.1244 353.226 77.25 354.29 77.1813C355.779 77.0645 357.276 77.2343 358.7 77.6816C359.33 78.0152 359.627 78.7565 359.627 79.9424C359.688 80.4214 359.593 80.9074 359.356 81.3281C359.119 81.7487 358.753 82.0817 358.311 82.2773C356.893 82.6607 355.422 82.8109 353.956 82.7221C352.394 82.8867 350.817 82.6173 349.398 81.9437C348.879 81.5545 348.619 80.7022 348.619 79.368H350.065C350.065 80.276 350.269 80.8504 350.658 81.0913C351.735 81.3994 352.858 81.5123 353.975 81.4249C355.124 81.4883 356.277 81.401 357.403 81.1654C357.656 81.0851 357.872 80.9187 358.014 80.6951C358.156 80.4716 358.216 80.2052 358.181 79.9424C358.181 79.2753 357.996 78.8676 357.607 78.7193C356.517 78.4897 355.401 78.4087 354.29 78.4784C352.749 78.6206 351.198 78.3387 349.805 77.6631C349.488 77.4012 349.242 77.0636 349.09 76.6814C348.937 76.2992 348.884 75.8847 348.934 75.4764C348.934 74.3275 349.268 73.6233 349.972 73.2713C351.368 72.8391 352.832 72.6695 354.29 72.771C355.754 72.627 357.228 72.8899 358.552 73.5307C358.861 73.8516 359.093 74.2385 359.231 74.6622C359.37 75.0859 359.41 75.5354 359.349 75.9768H357.941ZM369.3 72.9007H379.418V74.1978H375.1V82.5923H373.655V74.1978H369.263V72.9007H369.3ZM390.61 72.9007V82.5923H389.165V72.9007H390.61ZM410.235 79.2197H411.68C411.68 80.7578 411.365 81.7214 410.735 82.1291C409.303 82.6595 407.771 82.8622 406.25 82.7221C404.694 82.9081 403.117 82.6173 401.729 81.8881C400.927 80.6967 400.584 79.2547 400.765 77.8299C400.564 76.3773 400.901 74.9014 401.71 73.679C403.095 72.9389 404.673 72.6414 406.232 72.8265C407.752 72.6938 409.283 72.8963 410.716 73.4195C411.346 73.8272 411.661 74.7908 411.661 76.3289H410.216C410.216 75.2912 410.012 74.6611 409.586 74.4758C408.527 74.1736 407.424 74.0545 406.325 74.1237C405.146 73.9808 403.95 74.1535 402.859 74.6241C402.489 74.9762 402.303 76.0324 402.303 77.8113C402.303 79.5903 402.489 80.6281 402.859 80.9801C403.946 81.4646 405.141 81.6562 406.325 81.536C407.433 81.6194 408.547 81.5193 409.623 81.2396C410.086 80.9987 410.309 80.3687 410.309 79.3865L410.235 79.2197ZM430.934 75.9768C430.934 75.1429 430.73 74.6241 430.303 74.4017C429.326 74.1031 428.302 73.9899 427.283 74.0681C426.189 74.0085 425.092 74.0958 424.022 74.3275C423.803 74.4223 423.621 74.5858 423.504 74.7932C423.387 75.0005 423.341 75.2404 423.373 75.4764C423.348 75.7521 423.41 76.0286 423.549 76.2677C423.689 76.5067 423.899 76.6965 424.151 76.8107C425.164 77.125 426.225 77.2507 427.283 77.1813C428.778 77.0654 430.281 77.2351 431.712 77.6816C432.323 78.0152 432.638 78.7565 432.638 79.9424C432.694 80.4207 432.596 80.9042 432.36 81.3236C432.124 81.7431 431.76 82.077 431.323 82.2773C429.905 82.6591 428.434 82.8092 426.968 82.7221C425.4 82.8853 423.817 82.6161 422.391 81.9437C421.872 81.5545 421.613 80.7022 421.613 79.368H423.002C423.002 80.2822 423.206 80.8566 423.614 81.0913C424.684 81.3999 425.802 81.5129 426.912 81.4249C428.061 81.4883 429.214 81.401 430.341 81.1654C430.596 81.0886 430.817 80.9237 430.963 80.6998C431.109 80.4759 431.171 80.2076 431.137 79.9424C431.137 79.2753 430.934 78.8676 430.544 78.7193C429.455 78.4897 428.339 78.4087 427.227 78.4784C425.686 78.6206 424.135 78.3387 422.743 77.6631C422.429 77.398 422.186 77.0599 422.034 76.6786C421.882 76.2973 421.827 75.8844 421.872 75.4764C421.872 74.3275 422.224 73.6233 422.91 73.2713C424.306 72.8391 425.77 72.6695 427.227 72.771C428.691 72.6251 430.166 72.888 431.489 73.5307C431.795 73.8533 432.024 74.241 432.159 74.6646C432.294 75.0882 432.331 75.5368 432.268 75.9768H430.934ZM255.446 81.536C255.071 81.9655 254.61 82.3125 254.094 82.5552C253.605 82.7778 253.074 82.8916 252.537 82.8888C252.075 82.9098 251.614 82.8276 251.188 82.6481C250.761 82.4686 250.38 82.1963 250.072 81.851C249.607 81.3445 249.344 80.6854 249.331 79.998C249.321 79.3831 249.532 78.785 249.924 78.3117C250.433 77.732 251.066 77.2757 251.777 76.9774C251.409 76.5975 251.097 76.1669 250.851 75.6988C250.707 75.4042 250.631 75.0814 250.628 74.7538C250.625 74.4559 250.686 74.1608 250.807 73.8888C250.929 73.6168 251.108 73.3745 251.332 73.1786C251.578 72.9436 251.869 72.7615 252.188 72.6435C252.507 72.5256 252.846 72.4744 253.186 72.493C253.496 72.4837 253.804 72.5362 254.094 72.6476C254.384 72.759 254.648 72.9268 254.872 73.1415C255.085 73.3324 255.255 73.5668 255.37 73.829C255.485 74.0911 255.543 74.3748 255.539 74.6611C255.539 75.6247 254.89 76.5142 253.686 77.1257L255.539 79.4421C255.76 78.9892 255.922 78.5095 256.021 78.0151L257.318 78.2932C257.149 79.0649 256.841 79.7995 256.41 80.4612C256.854 81.056 257.385 81.5808 257.985 82.0179L257.151 82.9999C256.571 82.6101 256.052 82.1355 255.613 81.5917L255.446 81.536ZM252.889 76.2732C253.299 76.0782 253.66 75.7933 253.945 75.4394C254.107 75.2058 254.192 74.927 254.186 74.6426C254.192 74.4853 254.165 74.3284 254.108 74.1817C254.051 74.0351 253.964 73.9018 253.853 73.7902C253.749 73.6792 253.622 73.5919 253.481 73.5343C253.341 73.4768 253.189 73.4503 253.037 73.4566C252.72 73.4513 252.414 73.5711 252.185 73.7902C252.076 73.892 251.99 74.0156 251.933 74.1529C251.875 74.2902 251.848 74.4382 251.851 74.587C251.855 74.7616 251.899 74.9331 251.981 75.0874C252.076 75.2801 252.194 75.4605 252.333 75.6247L252.889 76.2732ZM254.65 80.5724L252.389 77.7372C251.856 78.0033 251.388 78.3827 251.017 78.8491C250.796 79.136 250.672 79.487 250.665 79.8498C250.688 80.3192 250.864 80.7684 251.166 81.1284C251.319 81.3466 251.525 81.5223 251.765 81.639C252.005 81.7557 252.271 81.8095 252.537 81.7955C252.951 81.7864 253.355 81.6646 253.704 81.4434C254.09 81.2076 254.414 80.8837 254.65 80.4983V80.5724Z" fill="white"/>
</svg>
